<svg width="36" height="29" viewBox="0 0 36 29" fill="none" xmlns="http://www.w3.org/2000/svg">
<path d="M35.875 16.5625L33 5.1875C32.625 3.6875 31.6875 2.4375 30.3125 1.6875C29 1 27.375 0.8125 25.9375 1.3125L25 1.625C24.4375 1.8125 24.1875 2.375 24.375 2.875L24.6875 3.8125C24.875 4.375 25.4375 4.625 25.9375 4.5L26.75 4.1875C27.4375 4 28.1875 4 28.8125 4.3125C29.5 4.625 29.9375 5.1875 30.125 5.9375L32.5 15.5625C31.125 15.125 29.375 14.75 27.4375 14.75C24.9375 14.75 22.0625 15.3125 19.125 17H16.8125C13.875 15.3125 11 14.75 8.5 14.75C6.5625 14.75 4.8125 15.125 3.4375 15.5625L5.8125 5.9375C6 5.1875 6.4375 4.625 7.125 4.3125C7.75 4 8.5 4 9.1875 4.1875L10 4.5C10.5 4.625 11.125 4.375 11.25 3.8125L11.5625 2.875C11.75 2.375 11.5 1.8125 10.9375 1.625L10 1.3125C8.5625 0.8125 6.9375 1 5.625 1.6875C4.25 2.4375 3.3125 3.6875 2.9375 5.1875L0.0625 16.5625C0 16.875 0 17.1875 0 17.5V21.9375C0 25.8125 3.1875 29 7.1875 29H9.5C13.25 29 16.375 26.125 16.6875 22.4375L16.875 20H19.0625L19.25 22.4375C19.5625 26.125 22.6875 29 26.4375 29H28.75C32.75 29 36 25.8125 36 21.9375V17.5C36 17.1875 35.9375 16.875 35.875 16.5625ZM13.6875 22.1875C13.5 24.375 11.6875 26 9.5 26H7.1875C4.875 26 3 24.1875 3 21.9375V18.875C4.1875 18.375 6.1875 17.75 8.5 17.75C10.375 17.75 12.1875 18.125 13.9375 18.9375L13.6875 22.1875ZM33 21.9375C33 24.1875 31.0625 26 28.75 26H26.4375C24.25 26 22.4375 24.375 22.25 22.1875L22 18.9375C23.75 18.125 25.5625 17.75 27.4375 17.75C29.75 17.75 31.75 18.375 33 18.875V21.9375Z" fill="#D8A47F"/>
</svg>
